inDegrees=no
num_controls=7
num_derivatives=13
num_iterations=138
num_multipliers=7
num_parameters=0
num_slacks=7
num_states=26
objective=0.445716
objective_accelerations=0.056722
objective_balance=0.003553
objective_effort=0.022764
objective_height=0.357108
objective_ligament=0.005569
solver_duration=2190.208392
status=Solve_Succeeded
success=true
DataType=double
version=3
OpenSimVersion=4.5
endheader
time	/jointset/ground_pelvis/pelvis_tilt/value	/jointset/ground_pelvis/pelvis_tx/value	/jointset/ground_pelvis/pelvis_ty/value	/jointset/hip_l/hip_flexion_l/value	/jointset/hip_l/hip_adduction_l/value	/jointset/hip_l/hip_rotation_l/value	/jointset/back/lumbar_extension/value	/jointset/patellofemoral_l/patellar_flexion_l/value	/jointset/knee_l/knee_flexion_l/value	/jointset/knee_l/knee_adduction_l/value	/jointset/knee_l/knee_rotation_l/value	/jointset/ankle_l/ankle_angle_l/value	/jointset/subtalar_l/subtalar_angle_l/value	/jointset/ground_pelvis/pelvis_tilt/speed	/jointset/ground_pelvis/pelvis_tx/speed	/jointset/ground_pelvis/pelvis_ty/speed	/jointset/hip_l/hip_flexion_l/speed	/jointset/hip_l/hip_adduction_l/speed	/jointset/hip_l/hip_rotation_l/speed	/jointset/back/lumbar_extension/speed	/jointset/patellofemoral_l/patellar_flexion_l/speed	/jointset/knee_l/knee_flexion_l/speed	/jointset/knee_l/knee_adduction_l/speed	/jointset/knee_l/knee_rotation_l/speed	/jointset/ankle_l/ankle_angle_l/speed	/jointset/subtalar_l/subtalar_angle_l/speed	/forceset/tau_hip_flexion_l	/forceset/tau_hip_adduction_l	/forceset/tau_hip_rotation_l	/forceset/tau_knee_flexion_l	/forceset/tau_ankle_angle_l	/forceset/tau_subtalar_angle_l	/forceset/tau_lumbar_extension	lambda_cid13_p0	lambda_cid13_p1	lambda_cid13_p2	lambda_cid13_p3	lambda_cid13_p4	lambda_cid13_p5	lambda_cid14_p0	/jointset/ground_pelvis/pelvis_tilt/accel	/jointset/ground_pelvis/pelvis_tx/accel	/jointset/ground_pelvis/pelvis_ty/accel	/jointset/hip_l/hip_flexion_l/accel	/jointset/hip_l/hip_adduction_l/accel	/jointset/hip_l/hip_rotation_l/accel	/jointset/back/lumbar_extension/accel	/jointset/patellofemoral_l/patellar_flexion_l/accel	/jointset/knee_l/knee_flexion_l/accel	/jointset/knee_l/knee_adduction_l/accel	/jointset/knee_l/knee_rotation_l/accel	/jointset/ankle_l/ankle_angle_l/accel	/jointset/subtalar_l/subtalar_angle_l/accel	gamma_cid13_p0	gamma_cid13_p1	gamma_cid13_p2	gamma_cid13_p3	gamma_cid13_p4	gamma_cid13_p5	gamma_cid14_p0
0.5	-0.3401898099829511	-0.03947003730019549	0.7612017638385432	1.095385386848656	-0.4371549270657161	-0.2235395278245722	-0.2541888635333861	0.7993078622563048	0.7993078622563856	-0.1321889110129362	-0.1584345725650973	0.1024976604384841	-0.0358442801352887	-0.7716313512192642	-0.2167479075904038	-0.5254897040179953	2.46354423117652	-0.2078886873600092	0.7458388549736684	-0.1171793880866678	1.968941344900233	1.968941344900454	0.1170158806548668	-0.08850822478464798	0.4456407893140619	-0.01098683343871742	-0.1693363472343807	0.01611214077191343	-0.01082114454236275	-0.2182284384039737	0.06807810310317455	0.0471374033250396	0.1675000198589439	-10.93251376270887	-21.75021951003528	6.778435889418846	-6.782668956659427	-522.8347916390542	-65.95304514106415	-25.51840544454008	0.788600458788615	0.6091400833049724	-0.4479605287889138	-1.361159387687537	0.7441316123297238	-0.199485847952227	1.083339076535496	-1.249632067626705	-1.249632067626752	0.09714883265694789	0.1711826255352145	-0.467581499852739	0.5643599224921478	-5.460348176330119e-07	-5.088374448676867e-07	2.626348892029158e-06	1.2083358095532e-07	-6.193865440707482e-07	8.672333348038271e-09	-4.496202698022385e-07
0.51	-0.347864897923142	-0.04160678352818684	0.7559256352740671	1.119947954661957	-0.4391977327844653	-0.2160901597634111	-0.2553075792038804	0.8189316517868285	0.8189316517868593	-0.1310180426750778	-0.1593107056091822	0.1069294887317813	-0.03592781158576602	-0.7632806540354845	-0.2105811000611137	-0.5296220058946146	2.448628186951409	-0.2006606526508874	0.7439435218879197	-0.1065966933556568	1.955545570651595	1.955545570651588	0.1171357493893179	-0.08670461830258823	0.4406507653676828	-0.005735710521761816	-0.1747830130000492	0.01677633590630443	-0.01092691288919999	-0.2209911771431603	0.06770895740230151	0.04756599301723744	0.171668172159909	-11.25239934834599	-21.8686772824483	6.783991621425244	-6.750031425272708	-526.447561176449	-65.64702140658777	-24.61578499575239	0.874080155564363	0.6235109339576662	-0.3788809067109556	-1.608071236933507	0.7136406248305704	-0.1986106577860978	1.040792569862675	-1.425113287430034	-1.425113287464347	-0.03387613526637536	0.1875241844742486	-0.5258275946743637	0.502829217764433	-5.073335388819202e-07	-4.132766337653227e-07	2.523802607352393e-06	1.279381176699071e-07	-5.685055285264964e-07	7.588139483226587e-08	-4.229216513941559e-07
0.52	-0.3554533237300168	-0.04368124971164197	0.7506115805129023	1.144351113173605	-0.4411679579111978	-0.2086625557568875	-0.2563214563473689	0.838413370938076	0.8384133709380549	-0.1298466320556956	-0.1601682876834606	0.1113091938350859	-0.03595936365878037	-0.7542989245560364	-0.204291898683156	-0.533074943355735	2.431662370845877	-0.1933725689566788	0.7414860440461746	-0.09621168268549492	1.940527269045045	1.94052726904481	0.117124336959546	-0.08479803082321269	0.4352161513155487	-0.0005909579461194736	-0.1802296787657175	0.01744053104069512	-0.01103268123603192	-0.2237539158823474	0.06733981170142821	0.04799458270943475	0.1758363244608745	-11.57557828790165	-21.98749039929618	6.790670114489163	-6.751088740781318	-530.1398003142011	-65.39770233214838	-23.71434498751204	0.9148069179222708	0.6336188530385048	-0.3120876456891392	-1.771113763771508	0.756141409347092	-0.3119147991515149	1.043802264365677	-1.574137539209282	-1.574137539209281	0.07089259981234491	0.1917788249983742	-0.5564995210037473	0.5430858542294973	-4.915208933410172e-07	-3.370867966400652e-07	2.53400303755122e-06	1.424186248474922e-07	-5.418775731966126e-07	1.403370523738809e-07	-4.146919603608921e-07
0.53	-0.3629488897944293	-0.04569230225347862	0.7452664029729348	1.168574723124677	-0.4430649434048662	-0.2012622209725419	-0.257232601113743	0.8577370856435111	0.8577370856434925	-0.1286757643340148	-0.1610062442403484	0.1156324683236198	-0.03593986411222801	-0.744708542001225	-0.1979065808754451	-0.5358439716840324	2.412730500300593	-0.1860138322278718	0.7384748807527306	-0.08607527282905404	1.923963989504093	1.923963989504086	0.1170504574872055	-0.0827881433928139	0.4293733391113613	0.004478489199329497	-0.1855527468807802	0.01794357356555845	-0.01108735896748802	-0.2265031666719541	0.06689909337923966	0.04828274257641039	0.1798529773632749	-11.92178152171631	-22.0364866311141	6.780737168289355	-6.641984238400937	-533.7519731470924	-65.06666651963656	-22.81541946692397	0.9969537977126102	0.6428225708608205	-0.2419270615724388	-2.00366400235322	0.7270517609493852	-0.3119705958856641	0.9898600103232672	-1.735093468360214	-1.735093468325986	-0.04630247699236541	0.2068774335407046	-0.607973188044589	0.4867687598340035	-4.762621337358284e-07	-2.632426046821366e-07	2.539314785505168e-06	1.596752061705758e-07	-5.205334220654432e-07	2.028998777235575e-07	-4.055664169064068e-07
0.54	-0.3703453920586033	-0.04763913475199347	0.7398970118226498	1.192599126309807	-0.4448880791399862	-0.1938952485214199	-0.2580441218487448	0.876887633492172	0.8768876334921588	-0.1275055902583038	-0.1618238451766372	0.1198953544665281	-0.03587009117119487	-0.7344861645083319	-0.1914478900187945	-0.5379176654192263	2.391821017657453	-0.178602617246989	0.7348135774014938	-0.07628687641101449	1.90589389769026	1.905893897690481	0.1169856077654605	-0.08072690670321209	0.42313848219044	0.00946372095003478	-0.1908758149958473	0.01844661609042064	-0.01114203669893328	-0.2292524174615617	0.066458375057051	0.0485709024433845	0.1838696302656712	-12.27209664964226	-22.08548059390561	6.771625263937848	-6.562371446844606	-537.455233691485	-64.79295648805042	-21.92087937785507	1.04120590553864	0.6482934628264581	-0.1730207270684289	-2.166636183342769	0.7666370597622587	-0.4419428107100388	0.9741995766854066	-1.875499993785471	-1.875499993785468	0.07269854993146624	0.2020486768389839	-0.634908464350491	0.5262427752807608	-4.616161841020682e-07	-1.919935946114653e-07	2.539217778634998e-06	1.80003188675913e-07	-5.050351819626389e-07	2.633685057544939e-07	-3.954497175816338e-07
0.55	-0.3776366732141597	-0.04952112764015457	0.7345103687952574	1.21640487320609	-0.4466368391733219	-0.1865678243351309	-0.2587595695637395	0.8958500662056749	0.8958500662056877	-0.1263361362831969	-0.1626204019253152	0.1240939344854099	-0.03575089552993868	-0.7236684060576039	-0.1849488232782174	-0.5392930497385896	2.369012382636733	-0.171146458929618	0.7305743593214543	-0.06687893110137803	1.8863511531479	1.886351153147846	0.1168953632868805	-0.07857607202979765	0.4165112803980559	0.01435331836251628	-0.1961262220571657	0.01890170497353675	-0.01113028776846123	-0.2318410809446917	0.06572404504227891	0.0487026951061959	0.1877673661126864	-12.71567656963826	-22.04292641325241	6.739569117063295	-6.290596982752556	-541.0506134245679	-64.40424517709012	-21.03511680292019	1.117249166188039	0.6510311481947971	-0.1022130525918369	-2.38544491823773	0.7352340153753822	-0.4297734924161905	0.9126523310848699	-2.029807477513395	-2.029807477554593	-0.0513091316826414	0.2233698393884108	-0.6865442998092582	0.4667328542076014	-4.42024710937095e-07	-1.065232153526134e-07	2.53531144726949e-06	2.015578716139814e-07	-4.846207287399527e-07	3.231202591590977e-07	-3.816991524265417e-07
0.5600000000000001	-0.3848167391149392	-0.05133806628720561	0.7291134887710272	1.239973040200804	-0.4483110118639537	-0.1792857647667954	-0.2593832257610415	0.9146098423151432	0.9146098423151799	-0.1251678693898612	-0.1633950965319008	0.1282242588337424	-0.03558352098856253	-0.7122431135529493	-0.1784370417967799	-0.5399650647868147	2.344305037343968	-0.1636851487062121	0.7257406538108032	-0.05792857287245761	1.865362576883455	1.865362576883126	0.1167481914111039	-0.07635447828455365	0.4094873480805963	0.01909950097402808	-0.2013766291184861	0.01935679385665211	-0.01111853883797694	-0.2344297444278225	0.0649897150275066	0.04883448776900611	0.1916651019596998	-13.16206889535673	-22.0001581799001	6.707798417132233	-6.052748068962099	-544.7197841577079	-64.0685032287552	-20.16144370309274	1.162712716323965	0.6508364109985145	-0.03234687284075349	-2.546378237751729	0.767667440969247	-0.5608402968323498	0.8826821605421984	-2.164666338202512	-2.164666338202593	0.06131307049214518	0.2162004912048951	-0.7142545693655908	0.4975598150868193	-4.164986095346665e-07	-3.987193067945204e-09	2.526833926509577e-06	2.245845950713268e-07	-4.583068197734087e-07	3.820117630121022e-07	-3.635879482750668e-07
